<svg width="150" height="24" viewBox="0 0 150 24" fill="none" xmlns="http://www.w3.org/2000/svg">
<g clip-path="url(#clip0_535_1157)">
<path d="M12 0.75H15.75V4.5H12V0.75Z" fill="white"/>
<path fill-rule="evenodd" clip-rule="evenodd" d="M12 8.25V4.5H6C2.89339 4.5 0.375 7.01839 0.375 10.125C0.375 13.2316 2.89339 15.75 6 15.75H12V19.5H8.25V23.25H12V19.5H18C21.1066 19.5 23.625 16.9816 23.625 13.875C23.625 10.7684 21.1066 8.25 18 8.25H12ZM12 12H6C4.96447 12 4.125 11.1605 4.125 10.125C4.125 9.08948 4.96447 8.25 6 8.25H12V12ZM12 12V15.75H18C19.0355 15.75 19.875 14.9105 19.875 13.875C19.875 12.8395 19.0355 12 18 12H12Z" fill="white"/>
<mask id="mask0_535_1157" style="mask-type:luminance" maskUnits="userSpaceOnUse" x="30" y="0" width="120" height="24">
<path d="M150 0H30V24H150V0Z" fill="white"/>
</mask>
<g mask="url(#mask0_535_1157)">
<path d="M31.77 14.358C33.306 15.462 35.274 16.254 37.65 16.254C39.834 16.254 41.274 15.606 41.274 13.926C41.274 10.158 30.306 12.774 30.306 6.02999C30.306 2.47799 33.594 0.869993 36.954 0.869993C39.594 0.869993 41.898 1.75799 43.458 3.05399L41.898 5.26199C40.53 4.27799 38.778 3.70199 36.786 3.70199C35.058 3.70199 33.354 4.30199 33.354 5.98199C33.354 9.582 44.322 6.94199 44.322 13.926C44.322 17.334 41.586 19.086 37.674 19.086C34.674 19.086 31.89 18.054 30.114 16.566L31.77 14.358ZM53.2521 4.90199C56.2761 4.90199 58.3641 7.08599 58.3641 10.638V18.75H55.4601V11.166C55.4601 8.79 54.1401 7.542 52.1481 7.542C49.9161 7.542 48.2841 9.078 48.2841 11.214V18.75H45.3801V5.14199H48.2841V7.34999C49.3401 6.17399 50.9961 4.90199 53.2521 4.90199ZM69.0299 18.75C69.0299 18.174 69.0058 17.598 69.0058 17.022C68.0218 18.414 66.3178 18.966 64.5418 18.966C61.5658 18.966 59.3578 17.478 59.3578 14.718C59.3578 11.886 62.0698 10.254 65.0458 10.254C66.3898 10.254 67.5658 10.422 68.9338 10.806C68.9818 8.502 67.8778 7.39799 65.5018 7.39799C64.0138 7.39799 62.2139 7.806 60.9659 8.406L60.2218 6.22199C62.0218 5.35799 63.9418 4.87799 65.8858 4.87799C69.8218 4.87799 71.8378 6.82199 71.8378 10.998V18.75H69.0299ZM65.2858 16.806C67.1338 16.806 68.9338 15.846 68.9338 13.926V12.774C67.8538 12.414 66.7738 12.246 65.6698 12.246C63.8938 12.246 62.3099 12.99 62.3099 14.526C62.3099 16.086 63.6778 16.806 65.2858 16.806ZM81.3135 4.87799C84.8175 4.87799 87.4575 7.662 87.4575 11.958C87.4575 16.254 84.8175 19.014 81.3135 19.014C78.9855 19.014 77.5215 18.222 76.6335 17.046V23.766H73.7779V5.14199H76.6335V6.84599C77.5215 5.66999 78.9855 4.87799 81.3135 4.87799ZM80.4735 16.35C82.9935 16.35 84.5295 14.406 84.5295 11.934C84.5295 9.51 82.9935 7.542 80.4735 7.542C77.9535 7.542 76.5855 9.51 76.5855 11.934C76.5855 14.406 77.9535 16.35 80.4735 16.35ZM96.2272 4.87799C99.7312 4.87799 102.371 7.662 102.371 11.958C102.371 16.254 99.7312 19.014 96.2272 19.014C93.8992 19.014 92.4352 18.222 91.5472 17.046V23.766H88.6912V5.14199H91.5472V6.84599C92.4352 5.66999 93.8992 4.87799 96.2272 4.87799ZM95.3872 16.35C97.9072 16.35 99.4433 14.406 99.4433 11.934C99.4433 9.51 97.9072 7.542 95.3872 7.542C92.8672 7.542 91.4992 9.51 91.4992 11.934C91.4992 14.406 92.8672 16.35 95.3872 16.35ZM107.062 1.78199C107.062 2.69399 106.27 3.46199 105.31 3.46199C104.325 3.46199 103.533 2.69399 103.533 1.78199C103.533 0.869993 104.349 0.10199 105.31 0.10199C106.27 0.10199 107.062 0.845993 107.062 1.78199ZM103.845 18.75V5.14199H106.75V18.75H103.845ZM115.625 1.18199C119.969 1.18199 122.561 3.62999 122.561 7.13399C122.561 10.662 120.041 13.038 115.625 13.038H112.361V18.75H109.289V1.18199H115.625ZM115.577 10.35C118.241 10.35 119.465 9.006 119.465 7.13399C119.465 5.23799 118.241 3.84599 115.577 3.84599H112.361V10.35H115.577ZM131.857 18.75C131.857 18.174 131.833 17.598 131.833 17.022C130.849 18.414 129.145 18.966 127.369 18.966C124.392 18.966 122.184 17.478 122.184 14.718C122.184 11.886 124.897 10.254 127.873 10.254C129.216 10.254 130.393 10.422 131.761 10.806C131.809 8.502 130.705 7.39799 128.328 7.39799C126.841 7.39799 125.04 7.806 123.792 8.406L123.048 6.22199C124.848 5.35799 126.768 4.87799 128.712 4.87799C132.649 4.87799 134.664 6.82199 134.664 10.998V18.75H131.857ZM128.112 16.806C129.961 16.806 131.761 15.846 131.761 13.926V12.774C130.681 12.414 129.6 12.246 128.496 12.246C126.721 12.246 125.136 12.99 125.136 14.526C125.136 16.086 126.505 16.806 128.112 16.806ZM146.098 5.14199H149.29L143.17 19.758C141.898 22.806 140.41 24.006 137.746 24.006C136.45 24.006 135.514 23.742 134.362 23.214L135.274 20.862C135.922 21.15 136.57 21.414 137.482 21.414C138.994 21.414 139.762 20.646 140.602 18.63L140.626 18.558L134.65 5.14199H137.962L142.066 15.054L146.098 5.14199Z" fill="white"/>
</g>
</g>
<defs>
<clipPath id="clip0_535_1157">
<rect width="150" height="24" fill="white"/>
</clipPath>
</defs>
</svg>
