<svg width="493" height="542" viewBox="0 0 493 542" fill="none" xmlns="http://www.w3.org/2000/svg">
<path fill-rule="evenodd" clip-rule="evenodd" d="M139.271 27.463C139.388 27.2291 139.507 26.9961 139.626 26.7657L141.229 23.6116L144.46 25.0489C147.649 26.4658 150.839 27.8853 154.039 29.2771L155.083 29.7324L155.696 30.6939C157.04 32.8062 158.469 34.865 160 36.8469C166.454 38.0539 173.338 37.7888 179.846 37.5665C193.936 37.0888 207.719 36.6916 219.224 46.2103C234.75 57.5806 251.794 66.7065 267.07 78.4589L267.164 78.5294L267.251 78.6071C273.593 84.1539 284.392 81.7845 292.074 81.3086L292.844 81.2631L293.57 81.5238C297.659 83.0004 301.872 84.1012 306.126 84.986C318.943 87.6536 332.043 88.4437 344.752 91.6942C347.105 88.9632 349.15 85.9207 351.151 82.9496C356.766 74.6218 362.211 66.627 372.063 63.0381C384.737 57.3681 397.588 52.1043 410.261 46.4326L412.395 45.4764L414.183 46.9807C420.832 52.5757 426.932 59.3063 434.272 64.0032C435.486 64.0487 436.701 64.0514 437.914 64.0282C449.36 63.7907 460.221 61.2401 471.733 63.1461L477.657 64.1264L474.148 69.0036C464.215 82.8103 455.124 97.216 444.553 110.563C442.138 113.612 439.285 116.256 436.432 118.88C432.801 122.223 428.695 125.887 426.395 130.357C426.79 193.967 425.486 257.593 427.199 321.19C427.905 322.865 428.721 324.489 429.621 326.069C433.176 332.311 438.01 337.862 442.621 343.338C447.71 349.379 452.727 355.515 456.261 362.63L456.634 363.378L456.65 364.214C456.684 365.864 456.415 367.509 455.878 369.068C454.596 372.789 451.957 375.76 449.271 378.544C447.603 380.271 445.705 382.082 444.327 384.045L443.491 385.235L442.067 385.547C440.206 385.951 438.346 386.369 436.486 386.794C436.536 386.822 436.587 386.847 436.634 386.874L445.591 391.784L435.579 393.8C431.11 394.702 426.804 395.989 422.214 396.24L421.563 396.277L421.375 397.257L420.617 398.055C418.339 400.445 417.443 403.499 417.467 406.754L417.48 408.612L416.005 409.741C413.114 411.953 410.185 414.115 407.305 416.341L406.32 417.104L405.073 417.121C399.291 417.194 392.066 417.239 387.743 421.662L387.541 421.87L387.307 422.043C386.204 422.866 385.432 423.87 384.931 425.152C383.46 428.925 384.591 434.906 384.939 438.897L385.002 439.633L384.781 440.337C382.245 448.404 379.837 456.434 372.414 461.201C370.918 464.574 369.492 467.977 368.107 471.398L369.378 472.258L368.22 475.067C365.318 482.097 362.147 489.015 358.818 495.853L357.162 499.259L356.459 498.903C352.467 509.011 348.163 518.944 340.692 527.053L339.831 527.986L338.581 528.2C334.832 528.844 331.104 529.603 327.393 530.447L325.783 530.81L324.433 529.864C303.412 515.155 282.923 499.697 261.868 485.036C253.082 478.92 245.995 471.047 238.456 463.537L235.758 460.847L238.501 458.207C240.368 456.41 242.246 454.623 244.124 452.839C243.578 449.723 243.05 446.608 242.531 443.49C178.915 407.709 115.041 372.387 51.403 336.644L47.5031 334.454L50.3589 331.01C51.9215 329.126 53.4779 327.235 55.0316 325.342C50.9693 320.909 49.1532 315.277 50.5008 308.978L50.7837 307.664L51.8394 306.83C54.4489 304.775 56.0231 302.295 55.253 298.904L53.4681 291.046L58.8441 293.85C57.6331 292.321 56.3926 290.813 55.1182 289.334L55.0727 289.281L55.029 289.224C53.925 287.847 52.6417 286.573 51.4378 285.282C48.3143 281.931 45.6594 278.432 45.3854 273.681L45.3533 273.102L45.4952 272.543C47.8895 263.172 52.1893 254.511 54.9629 245.291L55.3895 243.871L56.6764 243.13C58.355 242.166 60.0274 241.192 61.7115 240.237C66.4958 234.261 70.4733 227.694 73.7494 220.781L73.7699 220.74L73.7904 220.696C74.7471 218.8 76.0519 217.163 77.6511 215.766C81.302 212.576 85.442 211.309 89.5998 209.552C89.2776 208.329 88.951 207.109 88.6288 205.891L88.204 204.275L89.1268 202.881C92.4118 197.926 97.2166 192.902 99.1764 187.25C101.434 175.692 97.5067 163.797 93.248 153.162L92.5466 151.409L93.5452 149.805C94.2145 148.733 94.8883 147.664 95.5621 146.594C94.1342 144.444 92.9491 142.142 91.788 139.831C89.4151 135.1 86.9377 129.546 81.816 127.247L80.4613 126.639L79.8973 125.266C78.606 122.134 77.345 118.987 76.059 115.854C67.3221 107.496 67.9825 95.8992 70.1395 84.961C66.4181 82.8996 62.445 81.2586 58.5674 79.5463L57.2841 78.9794L56.6942 77.7045C53.0344 69.8151 50.1286 61.6195 47.1221 53.4667L46.2627 51.1402L48.077 49.4492C57.7294 40.4466 65.49 29.9628 77.6877 24.0615C92.5903 16.8506 108.375 11.7065 124.248 7.1123L126.13 6.5686L127.647 7.81223C130.277 9.97184 132.898 12.1448 135.529 14.3053L137.14 15.6258L136.862 17.6872C136.382 21.219 137.542 24.4758 139.271 27.463ZM74.0252 292.652C78.2883 292.415 82.5541 292.251 86.819 292.111C87.8747 291.81 88.9305 291.508 89.9862 291.206C89.1036 290.12 88.2219 289.032 87.3446 287.945C83.0244 289.121 78.6747 290.186 74.3 291.14C74.2197 291.647 74.1287 292.152 74.0252 292.652Z" fill="white" fill-opacity="0.05"/>
<path d="M422.742 150.646C392.453 150.641 362.166 150.635 331.878 150.621C332.098 150.257 332.536 149.538 332.756 149.174C339.958 147.192 345.147 141.323 349.013 135.235C362.639 113.571 372.819 89.6069 377.966 64.4987C389.215 59.5554 400.569 54.8568 411.785 49.8349C418.867 55.7933 425.182 62.8212 433.125 67.685C445.812 68.3661 458.409 64.721 471.123 66.8252C461.224 80.5846 452.213 94.9939 441.631 108.248C435.821 115.692 426.634 120.909 422.661 129.508C422.708 136.553 422.733 143.597 422.742 150.646ZM375.049 65.7905C358.565 80.7926 344.784 98.6811 333.797 118.052C330.117 124.566 326.189 131.368 325.737 139.013C325.49 141.269 326.236 143.49 326.196 145.726C325.399 147.466 324.323 149.051 323.35 150.689C320.69 150.621 318.032 150.635 315.378 150.648C309.245 139.931 302.527 129.544 295.002 119.753C289.656 112.869 283.927 106.209 277.292 100.526C273.31 97.1999 268.971 94.0663 263.907 92.6611L263.818 92.6334C261.412 91.996 258.869 91.9683 256.467 92.62L256.255 92.6879C248.266 95.1019 242.02 101.067 236.249 106.84C223.864 119.938 213.843 135.078 204.851 150.648C202.192 150.635 199.533 150.628 196.88 150.689C195.839 148.474 193.412 146.466 194.153 143.812C195.462 136.997 192.912 130.223 189.842 124.258C177.648 101.217 161.65 80.0382 141.945 62.897C146.969 88.5945 157.304 113.116 171.218 135.242C175.078 141.338 180.287 147.172 187.477 149.174C187.696 149.531 188.135 150.244 188.354 150.6C158.042 150.623 127.73 150.637 97.4175 150.644C98.2903 149.256 99.4254 147.458 100.059 146.438C94.1601 139.086 92.5877 127.997 83.3421 123.846C81.9481 120.464 80.5845 117.054 79.1932 113.673C70.2127 105.668 72.0788 93.4816 74.3313 83.1031C69.8263 80.2873 64.9055 78.2714 60.073 76.1368C56.4595 68.3385 53.5824 60.2116 50.6195 52.1775C59.8356 43.5775 67.6925 32.9937 79.3101 27.4166C93.9816 20.2726 109.604 15.2303 125.283 10.6941C127.92 12.8582 130.528 15.0249 133.167 17.1872C132.249 23.9794 135.836 29.5833 139.747 34.7417C140.547 33.1696 142.148 30.027 142.947 28.4566C146.148 29.8779 149.35 31.3019 152.552 32.6964C154.211 35.306 155.988 37.8254 157.917 40.2269C177.301 44.4962 200.271 35.2765 216.93 49.152C232.461 60.5383 249.534 69.6714 264.797 81.414C272.357 88.0258 283.205 85.5939 292.304 85.0315C309.645 91.2871 328.346 90.9309 345.983 95.8831C355.289 86.1885 359.972 71.3328 373.46 66.4985C373.988 66.261 374.519 66.0253 375.049 65.7905Z" fill="black"/>
<path d="M190.499 179.973L190.581 179.98C192.713 185.07 194.386 190.343 196.147 195.574C204.406 220.82 209.793 247.327 208.813 274.001C207.771 301.866 200.568 329.161 190.712 355.122C189.122 351.927 188.197 348.45 186.949 345.119C177.374 317.293 171.019 287.885 172.645 258.32C173.947 231.379 181.397 205.207 190.499 179.973Z" fill="black"/>
<path d="M329.657 179.987L329.746 179.973C331.022 184.225 332.707 188.338 334.065 192.571C342.804 218.523 348.643 245.811 347.745 273.322C346.86 301.426 339.466 328.887 329.696 355.115C327.663 351.18 326.564 346.839 325.036 342.691C315.975 315.791 310.06 287.412 311.52 258.903C312.905 231.79 319.95 205.235 329.657 179.987Z" fill="black"/>
<path d="M141.945 62.897C161.65 80.0382 177.648 101.217 189.842 124.258C192.912 130.223 195.462 136.997 194.153 143.812C193.412 146.466 195.839 148.474 196.88 150.689C199.533 150.628 202.192 150.635 204.851 150.648C199.465 160.096 194.564 169.846 190.581 179.98L190.499 179.973C161.524 179.841 132.543 179.907 103.564 179.914C103.495 170.251 100.282 160.7 96.7098 151.778C96.9061 151.462 97.1506 151.071 97.4175 150.644C127.73 150.637 158.042 150.623 188.354 150.6C188.135 150.244 187.696 149.531 187.477 149.174C180.287 147.172 175.078 141.338 171.218 135.242C157.304 113.116 146.969 88.5945 141.945 62.897Z" fill="white"/>
<path d="M333.797 118.052C344.784 98.6812 358.565 80.7927 375.049 65.7906C376.021 65.3585 376.992 64.9291 377.966 64.4988C372.819 89.607 362.639 113.571 349.013 135.235C345.147 141.323 339.959 147.193 332.756 149.174C332.536 149.538 332.098 150.257 331.878 150.621C362.166 150.635 392.453 150.641 422.742 150.646C422.755 160.398 422.742 170.153 422.714 179.912C391.724 179.941 360.728 179.809 329.746 179.973L329.657 179.988C325.662 169.854 320.773 160.097 315.378 150.648C318.032 150.635 320.69 150.621 323.35 150.689C324.323 149.051 325.399 147.467 326.196 145.726C326.236 143.49 325.491 141.269 325.737 139.013C326.189 131.368 330.117 124.566 333.797 118.052Z" fill="white"/>
<path d="M256.255 92.688L256.468 92.6201C256.436 143.353 256.491 194.08 256.441 244.803C256.539 245.051 256.731 245.544 256.826 245.791C259.109 246.134 261.521 245.442 263.803 246.312C263.756 195.088 263.736 143.861 263.818 92.6335L263.907 92.6612C275.003 118.937 279.019 147.803 278.286 176.189C277.484 200.147 273.358 224.289 263.797 246.374C268.759 248.575 271.877 253.477 273.392 258.519C275.503 265.616 275.168 273.535 272.07 280.296C270.349 283.874 267.744 287.391 263.879 288.777C274.441 314.187 278.745 341.903 278.362 369.336C277.998 391.126 274.702 412.986 267.47 433.59C266.483 436.62 265.01 439.466 264.112 442.523L263.866 442.476C263.646 428.386 263.831 414.289 263.769 400.196C263.845 363.404 263.632 326.604 263.879 289.812C263.544 289.517 263.214 289.23 262.892 288.948C261.213 289.895 259.013 289.908 257.34 288.948C257.005 289.23 256.676 289.51 256.353 289.805C256.601 300.994 256.388 312.192 256.463 323.382C256.427 362.994 256.525 402.603 256.415 442.215C254.709 439.363 253.749 436.161 252.575 433.075C245.399 412.408 242.15 390.495 241.862 368.664C241.547 341.45 245.872 313.967 256.353 288.77C252.198 287.261 249.498 283.374 247.791 279.486C244.624 271.787 244.7 262.736 248.127 255.136C249.731 251.441 252.554 248.39 256.072 246.443C256.066 246.21 256.066 245.757 256.059 245.53C247.434 225.283 243.377 203.322 242.15 181.42C240.67 151.334 244.618 120.617 256.255 92.688Z" fill="white"/>
<path d="M92.6635 355.481C125.354 355.506 158.049 355.364 190.747 355.56C194.522 365.688 199.547 375.293 204.838 384.7C202.145 384.735 199.45 384.728 196.757 384.728C192.588 392.01 188.4 399.285 184.208 406.553C182.086 405.366 179.963 404.182 177.838 402.996C181.336 396.922 184.818 390.835 188.258 384.728C173.861 384.724 159.465 384.721 145.07 384.721C127.595 374.981 110.125 365.24 92.6635 355.481Z" fill="white"/>
<path d="M329.506 355.547C368.845 355.389 408.185 355.49 447.525 355.481C449.542 358.285 451.386 361.197 452.924 364.289C453.073 371.644 445.188 376.327 441.277 381.904C437.121 382.806 432.986 383.771 428.856 384.731C396.567 384.731 364.276 384.728 331.988 384.721C342.653 403.714 353.742 422.483 364.557 441.399C362.474 442.654 360.37 443.874 358.245 445.061C346.676 424.937 335.011 404.873 323.475 384.728C320.779 384.735 318.079 384.735 315.393 384.708C320.697 375.293 325.694 365.668 329.506 355.547Z" fill="white"/>
<path d="M256.468 92.6202C258.869 91.9685 261.412 91.9961 263.818 92.6336C263.735 143.861 263.756 195.088 263.803 246.312C261.521 245.442 259.109 246.134 256.826 245.791C256.731 245.545 256.539 245.051 256.441 244.804C256.491 194.08 256.435 143.353 256.468 92.6202Z" fill="#BA0000"/>
<path d="M236.249 106.84C242.02 101.067 248.266 95.102 256.255 92.688C244.618 120.617 240.67 151.334 242.15 181.42C243.376 203.322 247.434 225.283 256.059 245.53C256.066 245.757 256.066 246.21 256.072 246.443C252.554 248.39 249.731 251.441 248.127 255.136C244.7 262.736 244.624 271.787 247.79 279.486C249.498 283.374 252.198 287.261 256.353 288.77C245.872 313.967 241.547 341.45 241.862 368.664C242.15 390.495 245.399 412.408 252.575 433.075C253.749 436.161 254.708 439.363 256.415 442.215C256.525 402.603 256.426 362.994 256.463 323.382C256.388 312.192 256.6 300.994 256.353 289.805C256.675 289.51 257.005 289.23 257.34 288.948C259.013 289.908 261.213 289.895 262.892 288.948C263.214 289.23 263.544 289.517 263.879 289.812C263.632 326.604 263.845 363.404 263.769 400.196C263.831 414.289 263.646 428.386 263.866 442.476C259.328 444.388 254.311 442.394 250.299 440.124C241.787 435.002 235.015 427.543 228.709 419.986C219.724 408.966 211.911 397.022 204.838 384.701C199.547 375.293 194.522 365.688 190.747 355.561C158.049 355.364 125.354 355.506 92.6635 355.481C79.5082 348.131 66.3628 340.772 53.2263 333.391C55.5385 330.606 57.8205 327.818 60.1327 325.002C55.3029 321.176 52.8131 315.988 54.1472 309.76C57.9097 306.796 59.9846 302.91 58.8878 298.079C65.0839 301.31 71.6932 303.504 78.3918 305.431C77.146 303.177 74.7177 298.671 73.5004 296.417C78.1241 296.149 82.7477 295.972 87.4017 295.825C90.3967 294.964 93.4194 294.104 96.442 293.244C93.8629 290.072 91.2856 286.898 88.7065 283.696C82.837 285.358 76.8791 286.809 70.8936 288.055C70.6553 292.118 69.381 296.001 67.987 299.797C64.7867 295.38 61.4964 291.021 57.9392 286.898C54.6497 282.777 49.4343 279.13 49.1068 273.466C51.4789 264.185 55.7759 255.527 58.5335 246.365C59.9248 245.565 62.7422 243.933 64.1647 243.133C69.3515 236.759 73.6209 229.76 77.1165 222.379C80.3489 215.972 88.1442 214.578 93.9816 211.643C93.5684 209.952 92.6769 206.631 92.2342 204.942C95.8503 199.487 100.68 194.534 102.786 188.22C103.346 185.449 103.584 182.677 103.564 179.914C132.543 179.907 161.524 179.841 190.499 179.973C181.397 205.207 173.947 231.379 172.645 258.32C171.019 287.885 177.374 317.293 186.949 345.119C188.197 348.451 189.122 351.927 190.712 355.122C200.568 329.161 207.771 301.866 208.813 274.001C209.793 247.327 204.406 220.82 196.147 195.574C194.386 190.343 192.713 185.07 190.581 179.98C194.564 169.847 199.465 160.097 204.851 150.648C213.843 135.078 223.864 119.938 236.249 106.84Z" fill="#BA0000"/>
<path d="M263.907 92.6611C268.971 94.0664 273.31 97.2 277.292 100.526C283.927 106.209 289.656 112.869 295.002 119.753C302.527 129.544 309.245 139.932 315.378 150.648C320.773 160.097 325.662 169.854 329.657 179.987C319.95 205.235 312.905 231.79 311.52 258.903C310.06 287.412 315.975 315.791 325.036 342.691C326.564 346.839 327.664 351.18 329.696 355.115C339.466 328.887 346.86 301.426 347.745 273.322C348.643 245.811 342.804 218.523 334.065 192.571C332.707 188.338 331.022 184.225 329.746 179.973C360.728 179.809 391.724 179.941 422.714 179.912C422.589 227.267 422.2 274.661 423.491 321.978C428.636 334.758 439.468 344.278 447.525 355.481C408.184 355.49 368.845 355.389 329.506 355.547C325.694 365.668 320.697 375.293 315.393 384.708C309.464 395.048 303 405.092 295.783 414.583C289.862 422.291 283.522 429.777 275.963 435.935C272.59 438.711 268.8 440.947 264.784 442.648C264.619 442.613 264.283 442.551 264.112 442.523C265.01 439.466 266.483 436.62 267.47 433.59C274.702 412.986 277.998 391.126 278.361 369.336C278.745 341.903 274.441 314.187 263.879 288.777C267.744 287.391 270.349 283.874 272.07 280.296C275.167 273.535 275.503 265.616 273.392 258.519C271.877 253.477 268.759 248.575 263.797 246.374C273.358 224.289 277.484 200.147 278.286 176.189C279.019 147.803 275.003 118.937 263.907 92.6611Z" fill="#BA0000"/>
<path d="M145.07 384.721C159.465 384.721 173.861 384.724 188.258 384.728C184.818 390.835 181.336 396.922 177.838 402.996C166.918 396.903 155.993 390.812 145.07 384.721ZM184.208 406.553C188.4 399.285 192.588 392.01 196.757 384.728C199.45 384.728 202.145 384.735 204.838 384.7C211.911 397.022 219.725 408.966 228.709 419.986C235.015 427.543 241.787 435.002 250.299 440.124C254.311 442.394 259.328 444.388 263.866 442.476L264.112 442.523C264.283 442.551 264.619 442.613 264.784 442.647C268.8 440.947 272.59 438.711 275.963 435.935C283.522 429.777 289.862 422.291 295.783 414.583C303 405.092 309.464 395.048 315.393 384.708C318.079 384.735 320.779 384.735 323.475 384.728C335.011 404.873 346.676 424.937 358.245 445.061C360.37 443.874 362.474 442.654 364.557 441.399C353.742 422.482 342.653 403.714 331.988 384.721C364.276 384.728 396.567 384.731 428.856 384.731C427.976 384.934 427.099 385.14 426.219 385.341C428.352 386.559 432.68 388.959 434.843 390.145C430.576 391.004 426.338 392.279 422.011 392.518C423.018 391.036 425.034 388.01 426.041 386.498C424.439 386.408 421.268 386.262 419.669 386.173C419.224 388.486 418.364 393.139 417.919 395.482C414.956 398.596 413.71 402.569 413.741 406.779C410.834 409.004 407.901 411.169 405.024 413.393C398.031 413.482 390.293 413.717 385.078 419.056C378.647 423.858 380.632 432.399 381.223 439.219C378.914 446.571 376.72 454.548 369.487 458.611C367.532 462.97 365.693 467.388 363.916 471.835C362.314 471.035 359.114 469.463 357.512 468.663C359.321 469.908 362.938 472.4 364.774 473.643C361.901 480.612 358.759 487.461 355.467 494.222C352.947 492.946 350.489 491.644 347.998 490.368C349.303 491.968 351.969 495.142 353.303 496.742C349.422 506.616 345.27 516.58 337.951 524.527C334.156 525.179 330.363 525.949 326.569 526.811C305.553 512.103 285.014 496.713 263.998 481.976C255.373 476.075 248.437 468.217 241.086 460.895C243.427 458.641 245.799 456.387 248.14 454.164C247.37 449.803 246.63 445.445 245.917 441.115C225.37 429.556 204.794 418.044 184.208 406.553Z" fill="#006600"/>
<path d="M15.2982 359.99C22.5759 356.253 15.6864 368.024 15.2982 359.99Z" stroke="black" stroke-width="0.216" stroke-miterlimit="22.9256"/>
</svg>
