<svg width="32" height="32" viewBox="0 0 32 32" fill="none" xmlns="http://www.w3.org/2000/svg">
<g clip-path="url(#clip0_535_872)">
<path d="M24.3904 10.8416H21.6768C21.3632 10.8416 21.0624 10.7072 20.8512 10.4704L19.7504 9.22879C19.584 9.04319 19.3536 8.93439 19.104 8.93439C18.8544 8.93439 18.624 9.04319 18.4576 9.22879L17.5104 10.2976C17.2032 10.6432 16.7552 10.848 16.2944 10.848H1.44C1.0176 12.0512 0.742405 13.3248 0.633606 14.6496H14.656C14.9056 14.6496 15.136 14.5472 15.3088 14.368L16.6144 13.0048C16.7744 12.832 17.0048 12.736 17.2416 12.736H17.2928C17.5424 12.736 17.7728 12.8448 17.9392 13.0304L19.04 14.272C19.2512 14.5088 19.552 14.6432 19.8656 14.6432H31.3088C31.2 13.3248 30.9248 12.0448 30.5024 10.8416H24.3904Z" fill="white"/>
<path d="M9.12001 22.6368C9.36961 22.6368 9.60001 22.5344 9.77281 22.3552L11.0784 20.992C11.2448 20.8192 11.4688 20.7232 11.7056 20.7232H11.7568C12.0064 20.7232 12.2432 20.832 12.4032 21.0112L13.504 22.2528C13.7152 22.4896 14.016 22.624 14.3296 22.624H29.8432C30.4256 21.4208 30.848 20.1344 31.104 18.784H16.2112C15.8976 18.784 15.5968 18.6496 15.3856 18.4128L14.2848 17.1712C14.1184 16.9856 13.888 16.8832 13.6384 16.8832C13.3888 16.8832 13.152 16.992 12.992 17.1712L12.0448 18.24C11.7376 18.592 11.2896 18.7904 10.8224 18.7904H0.838409C1.09441 20.1408 1.51681 21.4272 2.09921 22.6304L9.12001 22.6368Z" fill="white"/>
<path d="M20.1216 6.688C20.3712 6.688 20.6016 6.5856 20.7744 6.4128L22.08 5.0496C22.24 4.8768 22.4704 4.7808 22.7072 4.7808H22.7584C23.008 4.7808 23.2384 4.8896 23.4048 5.0752L24.5056 6.3168C24.7168 6.5536 25.0176 6.688 25.3312 6.688H28.2816C25.472 2.9568 21.0048 0.537598 15.9744 0.537598C10.944 0.537598 6.4704 2.9568 3.6608 6.688H20.1216Z" fill="white"/>
<path d="M14.1952 26.4384H10.1632C9.84959 26.4384 9.54879 26.304 9.33759 26.0672L8.23679 24.8256C8.07039 24.64 7.83999 24.5376 7.59039 24.5376C7.34079 24.5376 7.10399 24.6464 6.94399 24.8256L5.99679 25.8944C5.68959 26.2464 5.24159 26.4448 4.77439 26.4448H4.71039C7.51999 29.4528 11.52 31.3408 15.968 31.3408C20.416 31.3408 24.4096 29.4528 27.2256 26.4448L14.1952 26.4384Z" fill="white"/>
</g>
<defs>
<clipPath id="clip0_535_872">
<rect width="32" height="32" fill="white"/>
</clipPath>
</defs>
</svg>
