<svg width="40" height="40" viewBox="0 0 40 40" fill="none" xmlns="http://www.w3.org/2000/svg">
<g clip-path="url(#clip0_592_705)">
<path d="M32.5 33.75C32.5 37.2025 26.9025 40 20 40C13.0975 40 7.5 37.2025 7.5 33.75V28.75H32.5V33.75Z" fill="url(#paint0_linear_592_705)"/>
<path d="M32.5 28.75C32.5 32.2 26.9025 35 20 35C13.0975 35 7.5 32.2 7.5 28.75C7.5 25.3 13.0975 22.5 20 22.5C26.9025 22.5 32.5 25.3 32.5 28.75Z" fill="url(#paint1_linear_592_705)"/>
<path d="M32.5 23.75C32.5 27.2025 26.9025 30 20 30C13.0975 30 7.5 27.2025 7.5 23.75V18.75H32.5V23.75Z" fill="url(#paint2_linear_592_705)"/>
<path d="M32.5 18.75C32.5 22.2 26.9025 25 20 25C13.0975 25 7.5 22.2 7.5 18.75C7.5 15.3 13.0975 12.5 20 12.5C26.9025 12.5 32.5 15.3 32.5 18.75Z" fill="url(#paint3_linear_592_705)"/>
<path d="M32.5 13.75C32.5 17.2025 26.9025 20 20 20C13.0975 20 7.5 17.2025 7.5 13.75V8.75H32.5V13.75Z" fill="url(#paint4_linear_592_705)"/>
<path d="M32.5 8.75C32.5 12.2 26.9025 15 20 15C13.0975 15 7.5 12.2 7.5 8.75C7.5 5.3 13.0975 2.5 20 2.5C26.9025 2.5 32.5 5.3 32.5 8.75Z" fill="url(#paint5_linear_592_705)"/>
</g>
<defs>
<linearGradient id="paint0_linear_592_705" x1="14.13" y1="31.51" x2="18.255" y2="40.685" gradientUnits="userSpaceOnUse">
<stop stop-color="#6366F1"/>
<stop offset="1" stop-color="#4338CA"/>
</linearGradient>
<linearGradient id="paint1_linear_592_705" x1="32.535" y1="34.995" x2="21.755" y2="17.3575" gradientUnits="userSpaceOnUse">
<stop stop-color="#6366F1"/>
<stop offset="1" stop-color="#A5B4FC"/>
</linearGradient>
<linearGradient id="paint2_linear_592_705" x1="14.13" y1="21.51" x2="18.255" y2="30.685" gradientUnits="userSpaceOnUse">
<stop stop-color="#6366F1"/>
<stop offset="1" stop-color="#4338CA"/>
</linearGradient>
<linearGradient id="paint3_linear_592_705" x1="32.535" y1="24.995" x2="21.755" y2="7.3575" gradientUnits="userSpaceOnUse">
<stop stop-color="#6366F1"/>
<stop offset="1" stop-color="#A5B4FC"/>
</linearGradient>
<linearGradient id="paint4_linear_592_705" x1="14.13" y1="11.51" x2="18.255" y2="20.685" gradientUnits="userSpaceOnUse">
<stop stop-color="#6366F1"/>
<stop offset="1" stop-color="#4338CA"/>
</linearGradient>
<linearGradient id="paint5_linear_592_705" x1="32.535" y1="14.995" x2="21.755" y2="-2.6425" gradientUnits="userSpaceOnUse">
<stop stop-color="#6366F1"/>
<stop offset="1" stop-color="#A5B4FC"/>
</linearGradient>
<clipPath id="clip0_592_705">
<rect width="40" height="40" fill="white"/>
</clipPath>
</defs>
</svg>
