<svg width="32" height="32" viewBox="0 0 32 32" fill="none" xmlns="http://www.w3.org/2000/svg">
<g clip-path="url(#clip0_535_898)">
<path d="M0.40506 15.9997C0.40506 24.6126 7.38695 31.5945 15.9998 31.5945C24.6127 31.5945 31.5949 24.6124 31.5949 15.9997C31.5949 7.38694 24.6127 0.405029 15.9998 0.405029C7.38695 0.405029 0.40506 7.38692 0.40506 15.9997Z" fill="#0C0C4F" stroke="#EC796B" stroke-width="1.66234"/>
<path fill-rule="evenodd" clip-rule="evenodd" d="M8.94263 12.2304L9.33759 11.0102C9.41787 10.762 9.61374 10.5689 9.86283 10.4928L11.089 10.1157C11.2587 10.0638 11.2601 9.8244 11.0918 9.76981L9.8711 9.37484C9.62338 9.29457 9.43025 9.09869 9.35365 8.84959L8.97702 7.62342C8.92519 7.45415 8.68574 7.45231 8.63114 7.62112L8.23618 8.84135C8.1559 9.08904 7.96003 9.28218 7.71093 9.3588L6.48475 9.7354C6.31503 9.7877 6.31318 10.0267 6.48199 10.0813L7.70267 10.4762C7.95039 10.5565 8.14352 10.7529 8.22012 11.002L8.59675 12.2277C8.64858 12.3974 8.88803 12.3992 8.94263 12.2304Z" fill="#FAFAFA"/>
<path fill-rule="evenodd" clip-rule="evenodd" d="M28.3236 11.5202C27.8181 10.955 27.0293 10.6367 26.2623 10.5062C25.4892 10.3809 24.6785 10.3925 23.9153 10.5281C22.371 10.7893 20.9681 11.4287 19.7444 12.2176C19.109 12.6047 18.5671 13.0527 18.0057 13.5089C17.7352 13.7396 17.4885 13.9853 17.2317 14.2275L16.5299 14.9258C15.7673 15.7229 15.0157 16.4489 14.2884 17.0507C13.5582 17.6497 12.8755 18.1047 12.2028 18.4224C11.5304 18.7417 10.811 18.9296 9.87331 18.9596C8.94385 18.9924 7.84419 18.8246 6.66793 18.5478C5.48534 18.2721 4.2435 17.8792 2.85577 17.5411C3.33999 18.8844 4.06914 20.0715 5.0053 21.1567C5.95244 22.223 7.13513 23.1948 8.65446 23.834C10.1518 24.4873 12.0336 24.7219 13.793 24.368C15.5572 24.0284 17.1053 23.2122 18.3566 22.268C19.6112 21.3143 20.6262 20.2278 21.4819 19.0984C21.7181 18.7863 21.843 18.6117 22.014 18.3678L22.4865 17.6679C22.8148 17.235 23.1137 16.7421 23.4386 16.3132C24.0757 15.415 24.704 14.5177 25.4339 13.6911C25.8013 13.2719 26.1888 12.8708 26.6461 12.4854C26.8741 12.2973 27.1206 12.1132 27.3936 11.9474C27.6707 11.7685 27.9633 11.6285 28.3236 11.5202Z" fill="#EC796B"/>
<path fill-rule="evenodd" clip-rule="evenodd" d="M28.3236 11.5201C27.7807 10.1498 26.771 8.99632 25.4159 8.14514C24.0691 7.30329 22.1985 6.87368 20.3447 7.2399C19.429 7.41702 18.5418 7.758 17.7632 8.21207C16.9882 8.66435 16.2936 9.20879 15.6924 9.79287C15.3922 10.0859 15.1198 10.3916 14.8491 10.699L14.1476 11.5934L13.0641 13.0331C11.6828 14.8856 10.1953 17.0565 7.75418 17.6998C5.35777 18.3313 4.3184 17.772 2.85577 17.5409C3.12322 18.2314 3.45448 18.9019 3.90357 19.4918C4.3443 20.0936 4.86489 20.6588 5.5121 21.1435C5.83917 21.3762 6.18448 21.6059 6.568 21.8007C6.94979 21.9888 7.3615 22.1545 7.80095 22.2791C8.67508 22.5187 9.6592 22.6027 10.612 22.4737C11.5653 22.3465 12.4765 22.0445 13.273 21.6433C14.0754 21.2458 14.7743 20.7617 15.3984 20.2509C16.639 19.2207 17.604 18.0823 18.4191 16.9316C18.8291 16.3563 19.2013 15.7701 19.5455 15.1838L19.9506 14.4858C20.0745 14.2817 20.1997 14.0764 20.3269 13.8852C20.8403 13.117 21.3424 12.5011 21.9522 12.0387C22.5535 11.5644 23.391 11.214 24.51 11.1326C25.6243 11.0502 26.9108 11.2024 28.3236 11.5201Z" fill="#FAFAFA"/>
<path fill-rule="evenodd" clip-rule="evenodd" d="M22.2949 22.9057C22.2949 23.9123 23.1113 24.7285 24.1177 24.7285C25.1243 24.7285 25.9394 23.9123 25.9394 22.9057C25.9394 21.8994 25.1243 21.0829 24.1177 21.0829C23.1113 21.0829 22.2949 21.8994 22.2949 22.9057Z" fill="#EC796B"/>
</g>
<defs>
<clipPath id="clip0_535_898">
<rect width="32" height="32" fill="white"/>
</clipPath>
</defs>
</svg>
