<svg width="38" height="32" viewBox="0 0 38 32" fill="none" xmlns="http://www.w3.org/2000/svg">
<g clip-path="url(#clip0_535_908)">
<path d="M37.8225 8.00257V11.2605L36.4446 11.9614C35.3981 12.4952 34.7746 13.6042 34.8632 14.7745C34.8936 15.1809 34.9097 15.5922 34.9097 16.0034C34.9077 22.0187 31.5281 27.5248 26.1617 30.2557C20.7952 32.9867 14.3485 32.4812 9.47459 28.9472L12.3041 27.507L12.4643 27.4222C16.525 29.6962 21.4883 29.6502 25.506 27.3014C29.5238 24.9526 31.994 20.6529 31.9968 16.0034C31.9967 15.4277 31.9592 14.8526 31.8847 14.2816L9.8431 25.4988L5.28321 27.8191L-0.0473404 30.5314V27.2654L5.32006 24.5339L7.92846 23.2042L37.8225 8.00257ZM11.6096 1.74625C16.9761 -0.98659 23.4239 -0.482264 28.2989 3.05164L27.9096 3.25007L25.2996 4.57821C21.24 2.3138 16.2834 2.3651 12.2716 4.71305C8.25979 7.061 5.79243 11.3547 5.7863 15.9986C5.78654 16.5706 5.824 17.142 5.89846 17.7092L27.9176 6.50801L32.4775 4.18777L37.8225 1.46428V4.73182L32.431 7.47611L29.8226 8.80266L6.60984 20.6151L5.31686 21.2728L4.00465 21.9416L-0.0473404 24.0043V20.7351L1.32896 20.0342C2.3764 19.5012 3.00065 18.3919 2.91194 17.2211C2.88096 16.8168 2.86548 16.4109 2.86548 16.0034C2.86485 9.98723 6.24305 4.4791 11.6096 1.74625Z" fill="white"/>
</g>
<defs>
<clipPath id="clip0_535_908">
<rect width="37.7751" height="32" fill="white"/>
</clipPath>
</defs>
</svg>
